<?xml version="1.0" standalone="no"?>
<!DOCTYPE svg PUBLIC "-//W3C//DTD SVG 20010904//EN"
 "http://www.w3.org/TR/2001/REC-SVG-20010904/DTD/svg10.dtd">
<svg version="1.0" xmlns="http://www.w3.org/2000/svg"
 width="1536.000000pt" height="1024.000000pt" viewBox="0 0 1536.000000 1024.000000"
 preserveAspectRatio="xMidYMid meet">

<g transform="translate(0.000000,1024.000000) scale(0.100000,-0.100000)"
fill="#000000" stroke="none">
<path d="M0 5120 l0 -5120 7680 0 7680 0 0 5120 0 5120 -7680 0 -7680 0 0
-5120z m8650 2208 c304 -76 513 -190 710 -388 259 -260 395 -557 416 -906 19
-316 -72 -627 -259 -884 -55 -75 -240 -258 -307 -303 -44 -30 -64 -37 -103
-37 -53 0 -27 -20 -277 210 -69 63 -202 187 -295 275 -94 88 -192 179 -218
203 -79 72 -73 114 25 169 161 91 235 264 178 415 -24 66 -87 136 -149 167
-96 49 -113 50 -821 54 l-665 3 -115 53 c-63 30 -218 105 -345 168 -145 73
-222 107 -210 92 19 -20 294 -275 395 -364 25 -22 81 -74 125 -116 81 -76 382
-353 505 -464 113 -102 292 -265 355 -324 33 -31 125 -114 205 -186 79 -71
203 -184 275 -250 72 -66 227 -208 345 -315 118 -107 300 -274 405 -370 105
-96 313 -286 463 -423 230 -210 273 -253 283 -287 16 -54 -1 -109 -46 -149
l-36 -31 -685 0 c-571 0 -690 2 -719 14 -19 8 -92 68 -162 133 -70 66 -184
171 -254 234 -271 247 -588 538 -669 614 -47 44 -218 202 -380 350 -162 149
-326 300 -365 336 -38 36 -182 168 -320 294 -524 479 -596 547 -615 586 -20
38 -20 57 -18 713 l3 674 25 27 c14 15 34 31 45 36 11 4 729 7 1595 6 l1575
-3 105 -26z m2112 -3258 c24 -25 29 -36 24 -58 -16 -64 -106 -86 -145 -36 -28
36 -26 60 8 95 39 38 74 38 113 -1z m-444 -195 c20 -9 47 -26 59 -37 l23 -21
0 31 0 32 70 0 70 0 0 -270 0 -271 -67 3 c-63 3 -68 5 -67 26 1 27 3 27 -41
-2 -105 -72 -256 -48 -348 54 -50 55 -67 103 -67 187 0 164 112 283 268 283
34 0 79 -7 100 -15z m452 -265 l0 -270 -65 0 -65 0 0 270 0 270 65 0 65 0 0
-270z m-921 -135 c46 -23 54 -83 16 -120 -48 -49 -128 -24 -141 42 -5 27 -1
37 24 63 34 33 59 37 101 15z"/>
<path d="M10194 3769 c-41 -12 -90 -68 -104 -119 -23 -84 41 -190 124 -205
142 -27 244 134 167 262 -31 50 -124 81 -187 62z"/>
</g>
</svg>
